<?xml version="1.0"?>
<svg xmlns="http://www.w3.org/2000/svg" id="Layer_1" data-name="Layer 1" viewBox="0 0 512 512" width="512" height="512"><title>Announcement</title><path d="M41.852,502l281.054-1.664v0c.129,0,.259,0,.388-.014l163.843-11.584a6,6,0,0,0,5.57-5.692l4.286-87.775a6,6,0,0,0-7.432-6.117l-38.823,9.594-21.193-36.735a20.676,20.676,0,0,1-1.265-15.387c.038-.124.072-.25.1-.377L445.65,273.86a93.75,93.75,0,0,0-5.583-59.224,5.928,5.928,0,0,0-.412-.77L374.871,111.445V36.61A26.745,26.745,0,0,0,348.054,10H41.817A26.745,26.745,0,0,0,15,36.61V475.389A26.752,26.752,0,0,0,41.852,502Zm439.129-24.859L329.194,487.874l2.309-47.3L449.311,411.46l.023-.006,35.28-8.719ZM429.275,219.9a81.665,81.665,0,0,1,4.7,51.189l-17.22,72.189a32.627,32.627,0,0,0,2.156,24.289c.049.1.1.193.155.287l19.549,33.884-79.857,19.735a53.26,53.26,0,0,0-10.351-20.21l-10.219-12.438a73.47,73.47,0,0,1-3.793-77.713l2.712-4.891a63.333,63.333,0,0,0,7.844-27.486l2.373-48.6a30.407,30.407,0,0,1,25.941-28.314L369.984,236.3a207.954,207.954,0,0,0-.069,38.54,6,6,0,1,0,11.95-1.094,195.905,195.905,0,0,1,.065-36.309l3.934-41.36a6,6,0,0,0-5.681-6.561,43.462,43.462,0,0,0-5.312.076v-55.7ZM27,36.61A14.731,14.731,0,0,1,41.817,22H348.054a14.731,14.731,0,0,1,14.817,14.61V192.217a42.225,42.225,0,0,0-27.535,37.34l-2.373,48.6a51.284,51.284,0,0,1-6.351,22.25L323.9,305.3a85.4,85.4,0,0,0,4.557,90.561q.141.2.3.395l10.379,12.632a41.269,41.269,0,0,1,7.964,15.474L324.289,430a6,6,0,0,0-4.554,5.532l-2.58,52.842L41.817,490A14.732,14.732,0,0,1,27,475.389Z"/><path d="M55.406,67.664H180.327a6,6,0,0,0,0-12H55.406a6,6,0,1,0,0,12Z"/><path d="M46.058,437.884H170.979a6,6,0,1,0,0-12H46.058a6,6,0,1,0,0,12Z"/><path d="M49.776,113.942H310.017a6,6,0,0,0,0-12H49.776a6,6,0,1,0,0,12Z"/><path d="M49.776,160.219H310.017a6,6,0,0,0,0-12H49.776a6,6,0,0,0,0,12Z"/><path d="M49.776,206.5H310.017a6,6,0,0,0,0-12H49.776a6,6,0,0,0,0,12Z"/><path d="M49.776,252.775H310.017a6,6,0,0,0,0-12H49.776a6,6,0,1,0,0,12Z"/><path d="M49.776,299.052H310.017a6,6,0,0,0,0-12H49.776a6,6,0,0,0,0,12Z"/><path d="M49.776,345.33H282.091a6,6,0,0,0,0-12H49.776a6,6,0,0,0,0,12Z"/><path d="M442.22,441.2a17.485,17.485,0,0,0,4.673,12.81,17.926,17.926,0,0,0,12.376,5.758q.448.022.892.022a17.838,17.838,0,0,0,17.882-16.846,17.488,17.488,0,0,0-4.672-12.809A17.981,17.981,0,0,0,442.22,441.2Zm23.838,1.159a5.829,5.829,0,0,1-6.206,5.423,5.994,5.994,0,0,1-4.145-1.915,5.575,5.575,0,0,1-1.5-4.082,5.824,5.824,0,0,1,5.9-5.43c.1,0,.2,0,.3.007a6,6,0,0,1,4.145,1.916A5.583,5.583,0,0,1,466.058,442.363Z"/><path d="M47.412,395.2a43.6,43.6,0,0,0,7.491,2.45c2.664,6.535,7.167,11.715,12.765,14.369A26.456,26.456,0,0,0,78.934,414.4a30.167,30.167,0,0,0,15.856-4.411,32.234,32.234,0,0,0,8.688-8.595c.394-.525.869-1.157,1.286-1.667a27.154,27.154,0,0,0,5.339,3.707,35.575,35.575,0,0,0,16.051,4.1,36.633,36.633,0,0,0,19.167-5.042,6,6,0,0,0-6.041-10.368,24.544,24.544,0,0,1-12.862,3.413,23.518,23.518,0,0,1-10.638-2.67,16.128,16.128,0,0,1-3.524-2.532,10.572,10.572,0,0,0-7.146-3.253c-5.768-.153-8.923,4.04-11.229,7.113a21.219,21.219,0,0,1-5.491,5.648c-4.433,2.794-11.277,3.385-15.581,1.345a11.62,11.62,0,0,1-3.768-2.967,28.092,28.092,0,0,0,12.906-5.493,30.279,30.279,0,0,0,8.547-10.778c2.57-5.572,2.538-10.883-.091-14.955-2.216-3.433-6.215-5.784-11.261-6.621-6.722-1.115-14.123.582-18.853,4.323-5.213,4.122-8.1,11.252-8.036,19.534l-.112-.048A6,6,0,0,0,47.412,395.2Zm20.32-21.1a12.268,12.268,0,0,1,7.216-2.075,13.7,13.7,0,0,1,2.231.178c2.111.35,3,1.066,3.142,1.29.635.983-1.309,6.279-5.778,9.781A17.246,17.246,0,0,1,64.4,386.664C63.8,381.2,65.134,376.155,67.732,374.1Z"/></svg>
