<?xml version="1.0"?>
<svg xmlns="http://www.w3.org/2000/svg" xmlns:xlink="http://www.w3.org/1999/xlink" xmlns:svgjs="http://svgjs.com/svgjs" version="1.1" width="512" height="512" x="0" y="0" viewBox="0 0 64 64" style="enable-background:new 0 0 512 512" xml:space="preserve"><g><path xmlns="http://www.w3.org/2000/svg" d="m58 27h-14.234l3.5-2h6.734c2.206 0 4-1.794 4-4v-12c0-2.206-1.794-4-4-4h-18c0-2.206-1.794-4-4-4h-18c-2.206 0-4 1.794-4 4v12c0 2.206 1.794 4 4 4h5.734l8.266 4.723v-4.723h4c0 2.206 1.794 4 4 4h3v2h-9c-2.757 0-5 2.243-5 5v9.465l-1.801 1.2c-.54.36-1.102.676-1.68.955.929-1.307 1.481-2.899 1.481-4.62 0-4.411-3.589-8-8-8s-8 3.589-8 8c0 2.498 1.152 4.73 2.951 6.199-5.088.963-8.951 5.436-8.951 10.801v3.5c0 1.93 1.57 3.5 3.5 3.5h6.5 3.5 9.5v-8.965c0-.4.156-.777.439-1.061l1.762-1.762c.918 1.084 2.271 1.788 3.799 1.788h7.98l-.8 4h-4.18c-2.757 0-5 2.243-5 5v1h32v-1c0-2.757-2.243-5-5-5h-4.18l-.8-4h7.98c2.757 0 5-2.243 5-5v-16c0-2.757-2.243-5-5-5zm-32-8v3.277l-5.734-3.277h-3.96c.89-2.373 3.154-4 5.777-4h1.835c2.622 0 4.887 1.627 5.777 4zm-3-6c-1.654 0-3-1.346-3-3s1.346-3 3-3 3 1.346 3 3-1.346 3-3 3zm9-4v10h-.202c-.724-2.635-2.692-4.682-5.198-5.547.863-.898 1.4-2.112 1.4-3.453 0-2.757-2.243-5-5-5s-5 2.243-5 5c0 1.341.537 2.555 1.4 3.453-2.507.865-4.474 2.911-5.198 5.547h-.202c-1.103 0-2-.897-2-2v-12c0-1.103.897-2 2-2h18c1.103 0 2 .897 2 2v.556c-1.19.694-2 1.97-2 3.444zm2 12v-12c0-1.103.897-2 2-2h18c1.103 0 2 .897 2 2v12c0 1.103-.897 2-2 2h-.202c-.724-2.635-2.692-4.682-5.198-5.547.863-.898 1.4-2.112 1.4-3.453 0-2.757-2.243-5-5-5s-5 2.243-5 5c0 1.341.537 2.555 1.4 3.453-2.507.865-4.474 2.911-5.198 5.547h-.202c-1.103 0-2-.897-2-2zm8-7c0-1.654 1.346-3 3-3s3 1.346 3 3-1.346 3-3 3-3-1.346-3-3zm-3.694 9c.89-2.373 3.154-4 5.777-4h1.835c2.622 0 4.887 1.627 5.777 4h-4.96l-5.735 3.277v-3.277zm-29.306 16c0-3.309 2.691-6 6-6s6 2.691 6 6-2.691 6-6 6-6-2.691-6-6zm14.026 12.561c-.662.66-1.026 1.539-1.026 2.474v6.965h-4.351c.218-.456.351-.961.351-1.5 0-1.93-1.57-3.5-3.5-3.5h-8.5v2h8.5c.827 0 1.5.673 1.5 1.5s-.673 1.5-1.5 1.5h-3.5-6.5c-.827 0-1.5-.673-1.5-1.5v-3.5c0-4.963 4.038-9 9-9h3.488c3.149 0 6.199-.924 8.82-2.671l.692-.461v4.132c0 .478.089.932.215 1.371zm34.803 9.439h-27.658c.413-1.164 1.525-2 2.829-2h22c1.304 0 2.416.836 2.829 2zm-18.609-4 1.6-8h6.36l1.6 8zm21.78-9c0 1.654-1.346 3-3 3h-8.38l-.8-4h-9.64l-.8 4h-8.38c-1.654 0-3-1.346-3-3v-16c0-1.654 1.346-3 3-3h9v.723l1.266-.723h17.734c1.654 0 3 1.346 3 3z" fill="#9f3167" data-original="#000000" style=""/><path xmlns="http://www.w3.org/2000/svg" d="m57 31h2v2h-2z" fill="#9f3167" data-original="#000000" style=""/><path xmlns="http://www.w3.org/2000/svg" d="m57 35h2v2h-2z" fill="#9f3167" data-original="#000000" style=""/><path xmlns="http://www.w3.org/2000/svg" d="m57 39h2v2h-2z" fill="#9f3167" data-original="#000000" style=""/></g></svg>
