<?xml version="1.0"?>
<svg xmlns="http://www.w3.org/2000/svg" xmlns:xlink="http://www.w3.org/1999/xlink" xmlns:svgjs="http://svgjs.com/svgjs" version="1.1" width="512" height="512" x="0" y="0" viewBox="0 0 512 512" style="enable-background:new 0 0 512 512" xml:space="preserve"><g>
<g xmlns="http://www.w3.org/2000/svg">
	<g>
		<path d="M500,335.081v-108.76C500,176.518,459.482,136,409.679,136H408V87h57.5c4.143,0,7.5-3.357,7.5-7.5v-38    c0-4.143-3.357-7.5-7.5-7.5h-65c-4.143,0-7.5,3.357-7.5,7.5V136H243.5c-31.272,0-60.086,13.804-79.655,38h-81.51    c-0.072,0-0.142,0.01-0.214,0.011c-0.022,0.001-0.045,0.002-0.067,0.003C74.28,174.167,68,180.525,68,188.336v119.33    C68,315.569,74.431,322,82.335,322H141v13.234c-6.249,1.155-11,6.635-11,13.212v15.107c0,7.414,6.032,13.446,13.446,13.446H287    v24.805c0,7.827,6.368,14.195,14.195,14.195H305v47h-2.5c-4.143,0-7.5,3.357-7.5,7.5s3.357,7.5,7.5,7.5h74    c4.143,0,7.5-3.357,7.5-7.5s-3.357-7.5-7.5-7.5H372v-47h3.805c7.827,0,14.195-6.368,14.195-14.195V377h108.554    c7.414,0,13.446-6.032,13.446-13.446v-15.107C512,341.521,506.736,335.805,500,335.081z M408,49h50v23h-50V49z M251.783,189    l-56.825,51.54c-0.339,0.258-0.659,0.546-0.955,0.866l-16.538,15l-15.754-14.096c-0.721-1.069-1.669-1.894-2.741-2.453L102.13,189    H251.783z M273,190.009v94.71l-61.175-39.226L273,190.009z M83,192.011l59.942,53.632L83,284.078V192.011z M83,307v-5.104    l71.543-45.873l17.956,16.066c1.424,1.274,3.212,1.911,5.001,1.911c1.805,0,3.61-0.648,5.039-1.944l17.777-16.124L273,302.537V307    h-48c-4.142,0-7.5,3.357-7.5,7.5s3.358,7.5,7.5,7.5h48.665c7.904,0,14.335-6.431,14.335-14.335v-119.33    c0-7.904-6.431-14.335-14.335-14.335H184.34c16.001-14.764,36.848-23,59.16-23c48.248,0,87.5,39.252,87.5,87.5V335H156v-13h39    c4.142,0,7.5-3.357,7.5-7.5s-3.358-7.5-7.5-7.5H83z M357,463h-37v-47h37V463z M375,401h-73v-24h73V401z M497,362H145v-12h261    c4.143,0,7.5-3.357,7.5-7.5s-3.357-7.5-7.5-7.5h-60v-96.5c0-36.996-19.704-69.475-49.167-87.5H393v37.5c0,4.143,3.357,7.5,7.5,7.5    s7.5-3.357,7.5-7.5V151h1.679C451.211,151,485,184.789,485,226.321V335h-49c-4.143,0-7.5,3.357-7.5,7.5s3.357,7.5,7.5,7.5h56.5    h4.5V362z" fill="#ffffff" data-original="#000000" style=""/>
	</g>
</g>
<g xmlns="http://www.w3.org/2000/svg">
	<g>
		<path d="M29.5,242h-22c-4.142,0-7.5,3.357-7.5,7.5s3.358,7.5,7.5,7.5h22c4.142,0,7.5-3.357,7.5-7.5S33.642,242,29.5,242z" fill="#ffffff" data-original="#000000" style=""/>
	</g>
</g>
<g xmlns="http://www.w3.org/2000/svg">
	<g>
		<path d="M51.5,290h-22c-4.142,0-7.5,3.357-7.5,7.5s3.358,7.5,7.5,7.5h22c4.142,0,7.5-3.357,7.5-7.5S55.642,290,51.5,290z" fill="#ffffff" data-original="#000000" style=""/>
	</g>
</g>
<g xmlns="http://www.w3.org/2000/svg">
	<g>
		<path d="M51.5,194h-22c-4.142,0-7.5,3.357-7.5,7.5s3.358,7.5,7.5,7.5h22c4.142,0,7.5-3.357,7.5-7.5S55.642,194,51.5,194z" fill="#ffffff" data-original="#000000" style=""/>
	</g>
</g>
<g xmlns="http://www.w3.org/2000/svg">
</g>
<g xmlns="http://www.w3.org/2000/svg">
</g>
<g xmlns="http://www.w3.org/2000/svg">
</g>
<g xmlns="http://www.w3.org/2000/svg">
</g>
<g xmlns="http://www.w3.org/2000/svg">
</g>
<g xmlns="http://www.w3.org/2000/svg">
</g>
<g xmlns="http://www.w3.org/2000/svg">
</g>
<g xmlns="http://www.w3.org/2000/svg">
</g>
<g xmlns="http://www.w3.org/2000/svg">
</g>
<g xmlns="http://www.w3.org/2000/svg">
</g>
<g xmlns="http://www.w3.org/2000/svg">
</g>
<g xmlns="http://www.w3.org/2000/svg">
</g>
<g xmlns="http://www.w3.org/2000/svg">
</g>
<g xmlns="http://www.w3.org/2000/svg">
</g>
<g xmlns="http://www.w3.org/2000/svg">
</g>
</g></svg>
