<?xml version="1.0"?>
<svg xmlns="http://www.w3.org/2000/svg" xmlns:xlink="http://www.w3.org/1999/xlink" xmlns:svgjs="http://svgjs.com/svgjs" version="1.1" width="512" height="512" x="0" y="0" viewBox="0 0 512 512" style="enable-background:new 0 0 512 512" xml:space="preserve" class=""><g><g xmlns="http://www.w3.org/2000/svg"><path d="m499.5 60.5h-17.5v-17.5c0-6.893-5.607-12.5-12.5-12.5h-183.5c-12.254 0-23.153 5.909-30 15.026-6.847-9.117-17.746-15.026-30-15.026h-107.623c-4.142 0-7.5 3.357-7.5 7.5s3.358 7.5 7.5 7.5h107.623c12.407 0 22.5 10.094 22.5 22.5v199.634c0 4.143 3.358 7.5 7.5 7.5s7.5-3.357 7.5-7.5v-199.634c0-12.406 10.093-22.5 22.5-22.5h181v232.406c-4.755-1.495-15.244-.48-20.85 3.393-4.049-10.817-14.595-18.55-26.936-18.55-5.933 0-11.451 1.786-16.032 4.844-4.387-10.122-14.571-17.231-26.405-17.231-4.614 0-9.034 1.097-12.963 3.067v-37.419h50.559c4.142 0 7.5-3.357 7.5-7.5s-3.358-7.5-7.5-7.5h-50.559c.258-5.339-.327-11.639-3.392-17.5h83.951c4.142 0 7.5-3.357 7.5-7.5s-3.358-7.5-7.5-7.5h-158.246c-4.142 0-7.5 3.357-7.5 7.5s3.358 7.5 7.5 7.5h23.665c-2.275 3.809-3.819 11.34-3.392 17.5h-20.272c-4.142 0-7.5 3.357-7.5 7.5s3.358 7.5 7.5 7.5h20.272v59.492c-17.973.64-32.4 15.452-32.4 33.579v28.809c0 11.393 2.554 22.514 7.271 32.61h-17.771v-67.866c0-4.143-3.358-7.5-7.5-7.5s-7.5 3.357-7.5 7.5v67.866h-203.5v-325h38.377c4.142 0 7.5-3.357 7.5-7.5s-3.358-7.5-7.5-7.5h-40.877c-6.893 0-12.5 5.607-12.5 12.5v17.5h-17.5c-6.893 0-12.5 5.607-12.5 12.5v330c0 6.893 5.607 12.5 12.5 12.5h304.898c.455 1.861.791 3.91 1.009 6.181h-3.048c-11.855 0-21.5 9.645-21.5 21.5v16.819c0 11.855 9.645 21.5 21.5 21.5h154.761c11.855 0 21.5-9.645 21.5-21.5v-16.819c0-11.855-9.645-21.5-21.5-21.5h-3.204c.181-2.087.492-4.149.924-6.181h31.66c6.893 0 12.5-5.607 12.5-12.5v-330c0-6.893-5.607-12.5-12.5-12.5zm-484.5 15h15v297.5c0 6.893 5.607 12.5 12.5 12.5h247.984c3.442 4.432 9.54 10.667 15.604 15h-291.088zm482 325h-23.346c.737-1.26 1.523-2.497 2.372-3.701 7.91-11.227 12.446-24.477 12.446-38.211v-9.198c0-4.107-3.164-7.688-7.269-7.811-4.247-.128-7.731 3.277-7.731 7.497v9.166c0 10.689-3.429 21.06-9.612 29.78-7.08 9.984-11.176 21.537-11.987 33.658h-19.56c-4.107 0-7.688 3.165-7.811 7.27-.127 4.247 3.278 7.73 7.497 7.73h38.12c3.59 0 6.5 2.91 6.5 6.5v16.82c0 3.59-2.91 6.5-6.5 6.5h-154.76c-3.59 0-6.5-2.91-6.5-6.5v-16.819c0-3.59 2.91-6.5 6.5-6.5h81.199c4.107 0 7.688-3.165 7.811-7.27.127-4.247-3.278-7.73-7.497-7.73h-63.4c-.831-10.77-4.025-22.483-14.827-30.585l-4.155-3.033c-16.018-11.696-25.49-30.338-25.49-50.172v-28.81c0-9.853 7.703-17.92 17.4-18.548v46.436c0 4.107 3.164 7.688 7.269 7.811 4.247.128 7.731-3.277 7.731-7.497v-140.417c0-7.364 6.149-13.355 13.707-13.355s13.707 5.991 13.707 13.355v111.534c0 4.107 3.164 7.688 7.269 7.811 4.247.128 7.731-3.277 7.731-7.497v-30.017c-.071-6.158 5.518-13.43 12.963-13.335 7.558 0 13.707 5.991 13.707 13.366.001 7.182.078 22.617.097 30.012.014 4.132 3.367 7.474 7.5 7.474h.026c4.138 0 7.489-3.362 7.475-7.5l-.06-17.875c.147-7.241 6.227-13.09 13.693-13.09 7.558 0 13.707 5.991 13.707 13.355v17.423c0 4.107 3.164 7.688 7.269 7.811 4.247.128 7.731-3.277 7.731-7.497v-3.915c0-7.031 5.731-12.751 12.775-12.751s12.776 5.72 12.776 12.751v8.769c0 4.107 3.164 7.688 7.269 7.811 4.247.128 7.731-3.277 7.731-7.497v-9.083c0-6.761-2.436-12.963-6.473-17.783v-211.643h15z" fill="#9f3167" data-original="#000000" style="" class=""/><path d="m107.903 86.011h77.694c4.142 0 7.5-3.357 7.5-7.5s-3.358-7.5-7.5-7.5h-77.694c-4.142 0-7.5 3.357-7.5 7.5s3.358 7.5 7.5 7.5z" fill="#9f3167" data-original="#000000" style="" class=""/><path d="m225.745 103.511h-138.245c-4.142 0-7.5 3.357-7.5 7.5s3.358 7.5 7.5 7.5h138.245c4.142 0 7.5-3.357 7.5-7.5s-3.358-7.5-7.5-7.5z" fill="#9f3167" data-original="#000000" style="" class=""/><path d="m225.745 136.011h-87.745c-4.142 0-7.5 3.357-7.5 7.5s3.358 7.5 7.5 7.5h87.745c4.142 0 7.5-3.357 7.5-7.5s-3.358-7.5-7.5-7.5z" fill="#9f3167" data-original="#000000" style="" class=""/><path d="m67.5 151.011h35.5c4.142 0 7.5-3.357 7.5-7.5s-3.358-7.5-7.5-7.5h-35.5c-4.142 0-7.5 3.357-7.5 7.5s3.358 7.5 7.5 7.5z" fill="#9f3167" data-original="#000000" style="" class=""/><path d="m225.745 168.511h-158.245c-4.142 0-7.5 3.357-7.5 7.5s3.358 7.5 7.5 7.5h158.245c4.142 0 7.5-3.357 7.5-7.5s-3.358-7.5-7.5-7.5z" fill="#9f3167" data-original="#000000" style="" class=""/><path d="m225.745 201.011h-138.245c-4.142 0-7.5 3.357-7.5 7.5s3.358 7.5 7.5 7.5h138.245c4.142 0 7.5-3.357 7.5-7.5s-3.358-7.5-7.5-7.5z" fill="#9f3167" data-original="#000000" style="" class=""/><path d="m225.745 233.511h-158.245c-4.142 0-7.5 3.357-7.5 7.5s3.358 7.5 7.5 7.5h158.245c4.142 0 7.5-3.357 7.5-7.5s-3.358-7.5-7.5-7.5z" fill="#9f3167" data-original="#000000" style="" class=""/><path d="m444.373 86.011c4.142 0 7.5-3.357 7.5-7.5s-3.358-7.5-7.5-7.5h-138.373c-4.142 0-7.5 3.357-7.5 7.5s3.358 7.5 7.5 7.5z" fill="#9f3167" data-original="#000000" style="" class=""/><path d="m278.627 111.011c0 4.143 3.358 7.5 7.5 7.5h158.245c4.142 0 7.5-3.357 7.5-7.5s-3.358-7.5-7.5-7.5h-158.245c-4.142 0-7.5 3.357-7.5 7.5z" fill="#9f3167" data-original="#000000" style="" class=""/><path d="m286.127 151.011h158.245c4.142 0 7.5-3.357 7.5-7.5s-3.358-7.5-7.5-7.5h-158.245c-4.142 0-7.5 3.357-7.5 7.5s3.358 7.5 7.5 7.5z" fill="#9f3167" data-original="#000000" style="" class=""/><path d="m233.245 306.011c0-4.143-3.358-7.5-7.5-7.5h-158.245c-4.142 0-7.5 3.357-7.5 7.5s3.358 7.5 7.5 7.5h158.245c4.142 0 7.5-3.358 7.5-7.5z" fill="#9f3167" data-original="#000000" style="" class=""/><path d="m67.5 331.011c-4.142 0-7.5 3.357-7.5 7.5s3.358 7.5 7.5 7.5h44.924c4.142 0 7.5-3.357 7.5-7.5s-3.358-7.5-7.5-7.5z" fill="#9f3167" data-original="#000000" style="" class=""/><path d="m225.745 266.011h-49.511c-4.142 0-7.5 3.357-7.5 7.5s3.358 7.5 7.5 7.5h49.511c4.142 0 7.5-3.357 7.5-7.5s-3.358-7.5-7.5-7.5z" fill="#9f3167" data-original="#000000" style="" class=""/><path d="m67.5 281.011h73.755c4.142 0 7.5-3.357 7.5-7.5s-3.358-7.5-7.5-7.5h-73.755c-4.142 0-7.5 3.357-7.5 7.5s3.358 7.5 7.5 7.5z" fill="#9f3167" data-original="#000000" style="" class=""/></g></g></svg>
