<?xml version="1.0"?>
<svg xmlns="http://www.w3.org/2000/svg" xmlns:xlink="http://www.w3.org/1999/xlink" xmlns:svgjs="http://svgjs.com/svgjs" version="1.1" width="512" height="512" x="0" y="0" viewBox="0 0 512 512" style="enable-background:new 0 0 512 512" xml:space="preserve" class=""><g><g xmlns="http://www.w3.org/2000/svg"><path d="m499.5 82.331h-17.5v-17.5c0-6.893-5.607-12.5-12.5-12.5h-183.5c-12.254 0-23.153 5.909-30 15.026-6.847-9.117-17.746-15.026-30-15.026h-109.377c-4.142 0-7.5 3.357-7.5 7.5s3.358 7.5 7.5 7.5h109.377c12.407 0 22.5 10.094 22.5 22.5v4.132c-15.154-5.892-31.622-9.132-48.834-9.132-16.088 0-31.525 2.831-45.848 8.011h-66.318c-4.142 0-7.5 3.357-7.5 7.5s3.358 7.5 7.5 7.5h36.805c-7.592 5.118-14.633 10.99-21.027 17.5h-35.778c-4.142 0-7.5 3.357-7.5 7.5s3.358 7.5 7.5 7.5h23.037c-16.361 22.354-26.037 49.894-26.037 79.655 0 24.51 6.57 47.755 18.223 67.845h-15.223c-4.142 0-7.5 3.357-7.5 7.5s3.358 7.5 7.5 7.5h25.318c4.876 6.291 10.31 12.147 16.237 17.5h-41.555c-4.142 0-7.5 3.357-7.5 7.5s3.358 7.5 7.5 7.5h61.637c11.37 6.946 23.914 12.3 37.371 15.706 4.017 1.017 8.095-1.415 9.111-5.43 1.017-4.016-1.415-8.095-5.43-9.111-53.397-13.517-90.689-61.427-90.689-116.51 0-66.26 53.906-120.166 120.166-120.166s120.166 53.906 120.166 120.166c.548 62.777-50.508 117.076-113.608 119.989-4.136.224-7.308 3.758-7.085 7.894.216 3.999 3.526 7.096 7.483 7.096 13.336-.584 29.157-3.896 41.878-8.893v46.248h-203.5v-325h35.877c4.142 0 7.5-3.357 7.5-7.5s-3.358-7.5-7.5-7.5h-38.377c-6.893 0-12.5 5.607-12.5 12.5v17.5h-17.5c-6.893 0-12.5 5.607-12.5 12.5v330c0 6.893 5.607 12.5 12.5 12.5h214.766c2.587 6.438 8.883 11 16.234 11h25c7.352 0 13.647-4.563 16.234-11h81.152l9.039 10.135c12.891 15.126 39.015 16.817 53.744 1.534 3.42-3.42 6.07-7.375 7.899-11.669h62.932c6.893 0 12.5-5.607 12.5-12.5v-330c0-6.892-5.607-12.5-12.5-12.5zm-149.482 254.908-33.044 33.045c-1.21.775-3.583 3.097-7.777 0l-6.443-6.444c-.775-1.21-3.098-3.583 0-7.777l33.044-33.044c1.211-.775 3.583-3.098 7.778.001l6.442 6.441c2.144 2.144 2.144 5.633 0 7.778zm-50.488.833-12.276-15.111c5.528-4.709 10.669-9.853 15.371-15.38l15.116 12.28zm-24.223-6.027 13.914 17.128c-1.993 3.209-3.079 6.906-3.079 10.778 0 5.477 2.132 10.624 6.004 14.495l6.443 6.443c3.872 3.873 9.02 6.005 14.496 6.005 2.347 0 4.625-.414 6.777-1.167l5.89 6.604h-62.252v-53.149c4.067-2.181 8.005-4.566 11.807-7.137zm-260.307-234.714h15v297.5c0 6.893 5.607 12.5 12.5 12.5h183.5v15h-211zm253.5 336h-25c-1.378 0-2.5-1.121-2.5-2.5v-23.5h15 15v23.5c0 1.379-1.122 2.5-2.5 2.5zm17.5-11v-15h53.13l13.378 15zm211 0h-57.513c-.036-3.968-.987-9.556-3.371-15h33.384c6.893 0 12.5-5.607 12.5-12.5v-48.181c0-4.143-3.358-7.5-7.5-7.5s-7.5 3.357-7.5 7.5v45.681h-43.145l-11.405-10.172c-3.091-2.756-7.832-2.485-10.589.605s-2.486 7.832.605 10.59l14.685 13.098c8.527 7.317 10.251 22.847.912 31.941-4.32 4.319-10.067 6.584-16.168 6.429-6.106-.175-11.708-2.781-15.775-7.341l-54.276-60.855 24.451-24.451 19.493 17.385c1.47 1.563 6.917 3.217 10.589-.605 2.757-3.092 2.486-7.832-.605-10.59l-20.354-18.153c2.555-7.22.973-15.591-4.794-21.359l-6.442-6.441c-3.872-3.873-9.02-6.005-14.496-6.005-3.906 0-7.635 1.103-10.863 3.13l-17.115-13.904c5.327-7.883 9.841-16.354 13.429-25.291h119.363c4.142 0 7.5-3.357 7.5-7.5s-3.358-7.5-7.5-7.5h-114.344c1.539-5.696 2.71-11.539 3.497-17.5h48.04c4.142 0 7.5-3.357 7.5-7.5s-3.358-7.5-7.5-7.5h-46.896c.104-4.659-.066-10.869-.762-17.5h110.338c4.142 0 7.5-3.357 7.5-7.5s-3.358-7.5-7.5-7.5h-112.826c-1.347-5.993-3.092-11.835-5.207-17.5h29.138c4.142 0 7.5-3.357 7.5-7.5s-3.358-7.5-7.5-7.5h-35.81c-3.184-6.122-6.824-11.969-10.872-17.5h135.578c4.142 0 7.5-3.357 7.5-7.5s-3.358-7.5-7.5-7.5h-148.247c-.023 0-.046.003-.07.004-9.524-9.698-20.493-17.971-32.558-24.463v-11.052c0-12.406 10.093-22.5 22.5-22.5h181v243.011c0 4.143 3.358 7.5 7.5 7.5s7.5-3.357 7.5-7.5v-213.011h15v325z" fill="#9f3167" data-original="#000000" style="" class=""/><path d="m444.373 92.842h-138.373c-4.142 0-7.5 3.357-7.5 7.5s3.358 7.5 7.5 7.5h138.373c4.142 0 7.5-3.357 7.5-7.5s-3.358-7.5-7.5-7.5z" fill="#9f3167" data-original="#000000" style="" class=""/><path d="m444.373 157.842h-53.895c-4.142 0-7.5 3.357-7.5 7.5s3.358 7.5 7.5 7.5h53.895c4.142 0 7.5-3.357 7.5-7.5s-3.358-7.5-7.5-7.5z" fill="#9f3167" data-original="#000000" style="" class=""/><path d="m112.424 367.842c4.142 0 7.5-3.357 7.5-7.5s-3.358-7.5-7.5-7.5h-44.924c-4.142 0-7.5 3.357-7.5 7.5s3.358 7.5 7.5 7.5z" fill="#9f3167" data-original="#000000" style="" class=""/><path d="m444.5 320.342h-35.678c-4.142 0-7.5 3.357-7.5 7.5s3.358 7.5 7.5 7.5h35.678c4.142 0 7.5-3.357 7.5-7.5s-3.358-7.5-7.5-7.5z" fill="#9f3167" data-original="#000000" style="" class=""/><path d="m305.955 219.997c0-58.608-47.681-106.289-106.289-106.289s-106.289 47.681-106.289 106.289 47.681 106.289 106.289 106.289 106.289-47.68 106.289-106.289zm-178.394 55.921c-6.309-8.116-11.278-17.321-14.578-27.28h59.14c4.142 0 7.5-3.357 7.5-7.5s-3.358-7.5-7.5-7.5h-62.727c-.67-4.451-1.02-9.006-1.02-13.641s.35-9.189 1.02-13.641h180.539c.67 4.451 1.02 9.006 1.02 13.641s-.35 9.189-1.02 13.641h-82.811c-4.142 0-7.5 3.357-7.5 7.5s3.358 7.5 7.5 7.5h79.224c-3.299 9.96-8.269 19.164-14.578 27.28zm0-111.842h144.209c6.309 8.116 11.278 17.321 14.578 27.28h-173.364c3.299-9.959 8.269-19.163 14.577-27.28zm129.515-15h-114.82c15.694-12.729 35.675-20.368 57.41-20.368s41.715 7.64 57.41 20.368zm-114.82 141.842h114.819c-15.694 12.729-35.675 20.368-57.41 20.368s-41.714-7.639-57.409-20.368z" fill="#9f3167" data-original="#000000" style="" class=""/></g></g></svg>
